<svg width="436" height="701" viewBox="0 0 436 701" fill="none" xmlns="http://www.w3.org/2000/svg">
<g filter="url(#filter0_f_68:54)">
<g filter="url(#filter1_f_68:54)">
<path d="M168.397 314.541V616C137.329 616 111.164 616 85 616V85H162.953L269.238 386.459V85H351V616C320.479 616 303.036 616 268.15 616L168.397 314.541Z" fill="#EE1520" fill-opacity="0.78"/>
</g>
</g>
<g filter="url(#filter2_dd_68:54)">
<path d="M147.575 256.76V548C117.558 548 92.279 548 67 548V35H142.315L245.004 326.24V35H324V548C294.511 548 277.659 548 243.953 548L147.575 256.76Z" fill="#EE1520"/>
</g>
<defs>
<filter id="filter0_f_68:54" x="81" y="81" width="274" height="539" filterUnits="userSpaceOnUse" color-interpolation-filters="sRGB">
<feFlood flood-opacity="0" result="BackgroundImageFix"/>
<feBlend mode="normal" in="SourceGraphic" in2="BackgroundImageFix" result="shape"/>
<feGaussianBlur stdDeviation="2" result="effect1_foregroundBlur_68:54"/>
</filter>
<filter id="filter1_f_68:54" x="0" y="0" width="436" height="701" filterUnits="userSpaceOnUse" color-interpolation-filters="sRGB">
<feFlood flood-opacity="0" result="BackgroundImageFix"/>
<feBlend mode="normal" in="SourceGraphic" in2="BackgroundImageFix" result="shape"/>
<feGaussianBlur stdDeviation="42.5" result="effect1_foregroundBlur_68:54"/>
</filter>
<filter id="filter2_dd_68:54" x="67" y="35" width="307" height="563" filterUnits="userSpaceOnUse" color-interpolation-filters="sRGB">
<feFlood flood-opacity="0" result="BackgroundImageFix"/>
<feColorMatrix in="SourceAlpha" type="matrix" values="0 0 0 0 0 0 0 0 0 0 0 0 0 0 0 0 0 0 127 0" result="hardAlpha"/>
<feOffset dx="25" dy="25"/>
<feGaussianBlur stdDeviation="12.5"/>
<feColorMatrix type="matrix" values="0 0 0 0 0 0 0 0 0 0 0 0 0 0 0 0 0 0 0.25 0"/>
<feBlend mode="normal" in2="BackgroundImageFix" result="effect1_dropShadow_68:54"/>
<feColorMatrix in="SourceAlpha" type="matrix" values="0 0 0 0 0 0 0 0 0 0 0 0 0 0 0 0 0 0 127 0" result="hardAlpha"/>
<feOffset dx="25" dy="25"/>
<feGaussianBlur stdDeviation="12.5"/>
<feColorMatrix type="matrix" values="0 0 0 0 0 0 0 0 0 0 0 0 0 0 0 0 0 0 0.25 0"/>
<feBlend mode="normal" in2="effect1_dropShadow_68:54" result="effect2_dropShadow_68:54"/>
<feBlend mode="normal" in="SourceGraphic" in2="effect2_dropShadow_68:54" result="shape"/>
</filter>
</defs>
</svg>
