<svg width="19" height="19" viewBox="0 0 19 19" fill="none" xmlns="http://www.w3.org/2000/svg">
<path d="M7.21331 15.3266L14.3547 8.18517L10.9627 4.79314L3.82127 11.9346C3.72296 12.033 3.65312 12.1562 3.61916 12.2911L2.82764 16.3202L6.85597 15.5287C6.99122 15.4949 7.11495 15.425 7.21331 15.3266ZM16.6601 5.87976C16.9483 5.59154 17.1101 5.20068 17.1101 4.79314C17.1101 4.38559 16.9483 3.99473 16.6601 3.70651L15.4414 2.48772C15.1531 2.19958 14.7623 2.03772 14.3547 2.03772C13.9472 2.03772 13.5563 2.19958 13.2681 2.48772L12.0493 3.70651L15.4414 7.09855L16.6601 5.87976Z" fill="white"/>
</svg>
